<svg width="1440" height="1400" viewBox="0 0 1440 1400" fill="none" xmlns="http://www.w3.org/2000/svg">
<rect width="1440" height="1024" transform="translate(0 188)" fill="#0F103F"/>
<g filter="url(#filter0_f_1_1362)">
<circle cx="720" cy="700" r="500" fill="url(#paint0_radial_1_1362)" fill-opacity="0.6"/>
</g>
<g style="mix-blend-mode:overlay">
<path d="M606.07 467.16C397.617 491.539 243 581.015 243 687.665C243 813.07 456.781 914.731 720.493 914.731C984.204 914.731 1197.99 813.07 1197.99 687.665C1197.99 577.564 1033.2 485.766 814.514 465" stroke="url(#paint1_angular_1_1362)" stroke-width="1.70856" stroke-linecap="round"/>
</g>
<g style="mix-blend-mode:overlay">
<path d="M606.07 468.76C397.617 493.138 243 582.615 243 689.264C243 814.669 456.781 916.33 720.493 916.33C984.204 916.33 1197.99 814.669 1197.99 689.264C1197.99 579.164 1033.2 487.366 814.514 466.599" stroke="url(#paint2_angular_1_1362)" stroke-width="1.70856" stroke-linecap="round"/>
</g>
<g style="mix-blend-mode:overlay">
<path d="M830.746 472.28C1041.3 495.946 1197.99 585.903 1197.99 693.263C1197.99 818.668 984.204 920.328 720.493 920.328C456.781 920.328 243 818.668 243 693.263C243 588.369 392.568 500.088 595.818 474.015" stroke="url(#paint3_angular_1_1362)" stroke-width="1.70856" stroke-linecap="round"/>
</g>
<g style="mix-blend-mode:overlay">
<path d="M579.587 482.643C384.655 511.231 243 597.579 243 699.66C243 825.065 456.781 926.726 720.493 926.726C984.204 926.726 1197.99 825.065 1197.99 699.66C1197.99 594.27 1047 505.65 842.279 480.046" stroke="url(#paint4_angular_1_1362)" stroke-width="1.70856" stroke-linecap="round"/>
</g>
<g style="mix-blend-mode:overlay">
<path d="M859.791 491.204C1055.55 519.553 1197.99 606.094 1197.99 708.456C1197.99 833.861 984.204 935.522 720.493 935.522C456.781 935.522 243 833.861 243 708.456C243 609.457 376.228 525.256 562.074 494.185" stroke="url(#paint5_angular_1_1362)" stroke-width="1.70856" stroke-linecap="round"/>
</g>
<g style="mix-blend-mode:overlay">
<path d="M495.195 297.756C132.801 340.138 -136 495.692 -136 681.102C-136 899.118 235.657 1075.85 694.119 1075.85C1152.58 1075.85 1524.24 899.118 1524.24 681.102C1524.24 489.693 1237.76 330.102 857.575 294" stroke="url(#paint6_angular_1_1362)" stroke-width="2.97033" stroke-linecap="round"/>
</g>
<g style="mix-blend-mode:overlay">
<path d="M495.195 300.536C132.801 342.918 -136 498.473 -136 683.882C-136 901.898 235.657 1078.63 694.119 1078.63C1152.58 1078.63 1524.24 901.898 1524.24 683.882C1524.24 492.473 1237.76 332.882 857.575 296.78" stroke="url(#paint7_angular_1_1362)" stroke-width="2.97033" stroke-linecap="round"/>
</g>
<g style="mix-blend-mode:overlay">
<path d="M885.794 306.656C1251.85 347.8 1524.24 504.19 1524.24 690.834C1524.24 908.85 1152.58 1085.59 694.119 1085.59C235.657 1085.59 -136 908.85 -136 690.834C-136 508.476 124.023 354.999 477.373 309.672" stroke="url(#paint8_angular_1_1362)" stroke-width="2.97033" stroke-linecap="round"/>
</g>
<g style="mix-blend-mode:overlay">
<path d="M449.155 324.672C110.266 374.372 -136 524.487 -136 701.955C-136 919.971 235.657 1096.71 694.119 1096.71C1152.58 1096.71 1524.24 919.971 1524.24 701.955C1524.24 518.735 1261.75 364.67 905.843 320.158" stroke="url(#paint9_angular_1_1362)" stroke-width="2.97033" stroke-linecap="round"/>
</g>
<g style="mix-blend-mode:overlay">
<path d="M936.289 339.556C1276.62 388.84 1524.24 539.292 1524.24 717.247C1524.24 935.263 1152.58 1112 694.119 1112C235.657 1112 -136 935.263 -136 717.247C-136 545.139 95.6161 398.756 418.709 344.739" stroke="url(#paint10_angular_1_1362)" stroke-width="2.97033" stroke-linecap="round"/>
</g>
<defs>
<filter id="filter0_f_1_1362" x="20" y="0" width="1400" height="1400" filterUnits="userSpaceOnUse" color-interpolation-filters="sRGB">
<feFlood flood-opacity="0" result="BackgroundImageFix"/>
<feBlend mode="normal" in="SourceGraphic" in2="BackgroundImageFix" result="shape"/>
<feGaussianBlur stdDeviation="100" result="effect1_foregroundBlur_1_1362"/>
</filter>
<radialGradient id="paint0_radial_1_1362" cx="0" cy="0" r="1" gradientUnits="userSpaceOnUse" gradientTransform="translate(685 785) rotate(89.2284) scale(594.054)">
<stop stop-color="#2954A3"/>
<stop offset="1" stop-color="#0F103F"/>
</radialGradient>
<radialGradient id="paint1_angular_1_1362" cx="0" cy="0" r="1" gradientUnits="userSpaceOnUse" gradientTransform="translate(727.381 709.459) scale(508.767 237.904)">
<stop offset="0.458333" stop-color="white"/>
<stop offset="0.717799" stop-color="white" stop-opacity="0"/>
<stop offset="0.782437" stop-color="white" stop-opacity="0"/>
<stop offset="1" stop-color="white" stop-opacity="0.4"/>
</radialGradient>
<radialGradient id="paint2_angular_1_1362" cx="0" cy="0" r="1" gradientUnits="userSpaceOnUse" gradientTransform="translate(727.381 711.059) scale(508.767 237.905)">
<stop offset="0.458333" stop-color="white"/>
<stop offset="0.717799" stop-color="white" stop-opacity="0"/>
<stop offset="0.782437" stop-color="white" stop-opacity="0"/>
<stop offset="1" stop-color="white" stop-opacity="0.4"/>
</radialGradient>
<radialGradient id="paint3_angular_1_1362" cx="0" cy="0" r="1" gradientUnits="userSpaceOnUse" gradientTransform="translate(727.381 715.825) scale(508.767 237.015)">
<stop offset="0.458333" stop-color="white"/>
<stop offset="0.717799" stop-color="white" stop-opacity="0"/>
<stop offset="0.782437" stop-color="white" stop-opacity="0"/>
<stop offset="1" stop-color="white" stop-opacity="0.4"/>
</radialGradient>
<radialGradient id="paint4_angular_1_1362" cx="0" cy="0" r="1" gradientUnits="userSpaceOnUse" gradientTransform="translate(727.381 722.847) scale(508.767 236.29)">
<stop offset="0.458333" stop-color="white"/>
<stop offset="0.717799" stop-color="white" stop-opacity="0"/>
<stop offset="0.782437" stop-color="white" stop-opacity="0"/>
<stop offset="1" stop-color="white" stop-opacity="0.4"/>
</radialGradient>
<radialGradient id="paint5_angular_1_1362" cx="0" cy="0" r="1" gradientUnits="userSpaceOnUse" gradientTransform="translate(727.381 732.721) scale(508.767 235.041)">
<stop offset="0.458333" stop-color="white"/>
<stop offset="0.717799" stop-color="white" stop-opacity="0"/>
<stop offset="0.782437" stop-color="white" stop-opacity="0"/>
<stop offset="1" stop-color="white" stop-opacity="0.4"/>
</radialGradient>
<radialGradient id="paint6_angular_1_1362" cx="0" cy="0" r="1" gradientUnits="userSpaceOnUse" gradientTransform="translate(706.095 718.992) scale(884.489 413.596)">
<stop offset="0.458333" stop-color="white"/>
<stop offset="0.717799" stop-color="white" stop-opacity="0"/>
<stop offset="0.782437" stop-color="white" stop-opacity="0"/>
<stop offset="1" stop-color="white" stop-opacity="0.4"/>
</radialGradient>
<radialGradient id="paint7_angular_1_1362" cx="0" cy="0" r="1" gradientUnits="userSpaceOnUse" gradientTransform="translate(706.095 721.772) scale(884.489 413.596)">
<stop offset="0.458333" stop-color="white"/>
<stop offset="0.717799" stop-color="white" stop-opacity="0"/>
<stop offset="0.782437" stop-color="white" stop-opacity="0"/>
<stop offset="1" stop-color="white" stop-opacity="0.4"/>
</radialGradient>
<radialGradient id="paint8_angular_1_1362" cx="0" cy="0" r="1" gradientUnits="userSpaceOnUse" gradientTransform="translate(706.095 730.058) scale(884.489 412.049)">
<stop offset="0.458333" stop-color="white"/>
<stop offset="0.717799" stop-color="white" stop-opacity="0"/>
<stop offset="0.782437" stop-color="white" stop-opacity="0"/>
<stop offset="1" stop-color="white" stop-opacity="0.4"/>
</radialGradient>
<radialGradient id="paint9_angular_1_1362" cx="0" cy="0" r="1" gradientUnits="userSpaceOnUse" gradientTransform="translate(706.095 742.266) scale(884.489 410.79)">
<stop offset="0.458333" stop-color="white"/>
<stop offset="0.717799" stop-color="white" stop-opacity="0"/>
<stop offset="0.782437" stop-color="white" stop-opacity="0"/>
<stop offset="1" stop-color="white" stop-opacity="0.4"/>
</radialGradient>
<radialGradient id="paint10_angular_1_1362" cx="0" cy="0" r="1" gradientUnits="userSpaceOnUse" gradientTransform="translate(706.095 759.432) scale(884.489 408.618)">
<stop offset="0.458333" stop-color="white"/>
<stop offset="0.717799" stop-color="white" stop-opacity="0"/>
<stop offset="0.782437" stop-color="white" stop-opacity="0"/>
<stop offset="1" stop-color="white" stop-opacity="0.4"/>
</radialGradient>
</defs>
</svg>
